<?xml version="1.0" encoding="utf-8"?>
<!-- Generator: Adobe Illustrator 24.1.2, SVG Export Plug-In . SVG Version: 6.00 Build 0)  -->
<svg version="1.1" id="Layer_1" xmlns="http://www.w3.org/2000/svg" xmlns:xlink="http://www.w3.org/1999/xlink" x="0px" y="0px"
	 viewBox="0 0 616.3 611.7" style="enable-background:new 0 0 616.3 611.7;" xml:space="preserve">
<g>
	<path d="M308.1,552c-11.6,0-23.1-3.8-32.6-11.4c-38.4-31-70.7-65.4-95.8-102.3c-20.3-29.6-36-60.9-46.8-93
		c-17.6-52.3-16.4-89.5-16.1-94.6c0.2-105.4,86-191,191.4-191c105.4,0,191.2,85.6,191.4,191c0.3,5.1,1.5,42.4-16.1,94.6
		c-10.8,32.1-26.6,63.3-46.8,93c-25.2,36.9-57.4,71.3-95.8,102.3C331.3,548.2,319.7,552,308.1,552z M308.1,87.7
		c-90.1,0-163.4,73.3-163.4,163.4c0,0.3,0,0.6,0,1c0,0.3-2,35.5,15.2,85.8c15.9,46.3,51.9,115.3,133.2,181c8.7,7,21.3,7,30,0
		c81.3-65.6,117.3-134.6,133.2-181c17.2-50.2,15.2-85.5,15.2-85.8c0-0.3,0-0.6,0-0.9C471.5,161,398.2,87.7,308.1,87.7z M499.5,251.1
		L499.5,251.1L499.5,251.1z"/>
	<path d="M308.1,346.1c-55,0-99.8-44.8-99.8-99.8s44.8-99.8,99.8-99.8s99.8,44.8,99.8,99.8S363.1,346.1,308.1,346.1z M308.1,174.6
		c-39.6,0-71.8,32.2-71.8,71.8s32.2,71.8,71.8,71.8s71.8-32.2,71.8-71.8S347.7,174.6,308.1,174.6z"/>
</g>
</svg>
