<?xml version="1.0" encoding="utf-8"?>
<!-- Generator: Adobe Illustrator 24.1.2, SVG Export Plug-In . SVG Version: 6.00 Build 0)  -->
<svg version="1.1" id="Layer_1" xmlns="http://www.w3.org/2000/svg" xmlns:xlink="http://www.w3.org/1999/xlink" x="0px" y="0px"
	 viewBox="0 0 616.3 611.7" style="enable-background:new 0 0 616.3 611.7;" xml:space="preserve">
<g>
	<path d="M517.8,200.4c-20.2,0-38.5,0-57.5,0c0-7.7,0-14.3,0-22c26.1,0,52.5,0,80.8,0c0,5,0,10.2,0,15.3c0,112.1,0,224.2,0,336.3
		c0,43.5-23,66.6-66.2,66.6c-111.6,0-223.2,0-334.9,0c-41.3,0-64.9-23.6-64.9-65c0-113.1,0-226.1,0-339.2c0-4.3,0-8.6,0-14
		c27,0,53.4,0,80.7,0c0,6.9,0,13.9,0,21.9c-18.7,0-37,0-56.7,0c-0.3,5.6-0.7,10.3-0.7,14.9c0,104.8,0,209.6,0,314.5
		c0,31.2,12.7,43.7,44.3,43.7c110.7,0,221.3,0,331.9,0c29.7,0,43-12.9,43.1-42c0.1-105.8,0-211.6,0-317.4
		C517.8,210.1,517.8,206.3,517.8,200.4z"/>
	<path d="M389.1,200c-54.4,0-107.5,0-161.6,0c0-7.4,0-14.4,0-22c53.9,0,107.5,0,161.6,0C389.1,185.4,389.1,192,389.1,200z"/>
	<path d="M444.4,248.2c-7.3-5.2-8.3-10.5-8.2-18c0.2-30.6,0.8-61.1-0.2-91.7c-0.7-20.6-5.2-39.8-14.1-56.6L422,82
		c0,0-26.6-58.3-101.5-66.2c-2-0.2-4-0.4-5.9-0.5c0,0-0.1,0-0.1,0l0,0c-14.7-1-27.5,0.8-37.5,3.2c-59.9,16.4-96.7,64.2-97,127.2
		c-0.1,28.6,0.3,57.2-0.4,85.8c-0.1,5.1-3.2,11.8-7.2,15c-18,14.6-21.1,37.4-6.2,53.4c13.6,14.6,36.9,14.6,50.6,0.1
		c15-16,12.1-38.1-6.3-53.3c-3.7-3.1-6.9-9-7-13.8c-0.6-31-0.8-62.1-0.2-93.1c1.1-56.6,47.6-102.1,103.9-102.3
		c57.2-0.2,104.2,45,105.4,102.3c0.7,31,0.5,62.1-0.1,93.1c-0.1,4.6-3.4,10.6-7.1,13.6c-18.2,14.5-21.2,37.3-6.3,53.4
		c13.6,14.6,36.9,14.7,50.6,0.2C464.5,284.6,462.8,261.2,444.4,248.2z M207.5,277.3c0,8.9-7.2,16.1-16.1,16.1
		c-8.9,0-16.1-7.2-16.1-16.1s7.2-16.1,16.1-16.1S207.5,268.4,207.5,277.3z M424.4,293.3c-8.9,0-16.1-7.2-16.1-16.1
		s7.2-16.1,16.1-16.1c8.9,0,16.1,7.2,16.1,16.1C440.5,286.1,433.3,293.3,424.4,293.3z"/>
</g>
</svg>
