<?xml version="1.0" encoding="utf-8"?>
<!-- Generator: Adobe Illustrator 24.1.2, SVG Export Plug-In . SVG Version: 6.00 Build 0)  -->
<svg version="1.1" id="Layer_1" xmlns="http://www.w3.org/2000/svg" xmlns:xlink="http://www.w3.org/1999/xlink" x="0px" y="0px"
	 viewBox="0 0 616.3 611.7" style="enable-background:new 0 0 616.3 611.7;" xml:space="preserve">
<path d="M366,386.4c-13.3,7.6-25.6,15.5-38.6,21.9c-21.7,10.7-45.1,15.4-69.2,15c-84-1.2-150.5-60.4-163.8-140
	c-14.9-89.6,45.7-175.7,134.9-190.8c61.5-10.4,113.6,8.4,155.2,54.5c23.2,25.6,36.2,56.4,39.8,90.9c4.7,44.8-6.5,85.2-34,120.9
	c-2.4,3.2-1.7,4.9,0.8,7.4c42.4,42.3,84.6,84.6,126.9,126.9c9.6,9.6,7.5,23.2-4.4,27.6c-7.2,2.7-13.2,0.4-18.5-5
	c-34.3-34.5-68.8-68.9-103.2-103.3C383,403.6,374.1,394.6,366,386.4z M258.9,122.1c-74.6,0.3-134.8,60.3-134.4,134.5
	c0.4,77.7,63.9,135.1,135.6,134.3c74-0.8,133.3-60.7,133.1-135.7C393,181.9,332.3,121.9,258.9,122.1z"/>
<g id="DESIGNED_BY_FREEPIK">
</g>
</svg>
