<?xml version="1.0" standalone="no"?>
<!DOCTYPE svg PUBLIC "-//W3C//DTD SVG 20010904//EN"
 "http://www.w3.org/TR/2001/REC-SVG-20010904/DTD/svg10.dtd">
<svg version="1.0" xmlns="http://www.w3.org/2000/svg"
 width="458.000000pt" height="224.000000pt" viewBox="0 0 458.000000 224.000000"
 preserveAspectRatio="xMidYMid meet">

<g transform="translate(0.000000,224.000000) scale(0.100000,-0.100000)"
fill="#000000" stroke="none">
<path d="M720 2061 c-54 -15 -97 -42 -140 -88 -64 -68 -73 -88 -78 -173 -2
-41 -9 -81 -14 -87 -7 -9 -38 -13 -87 -13 -67 0 -80 -3 -99 -22 -26 -29 -39
-84 -52 -223 -9 -103 -33 -320 -45 -410 -3 -22 -12 -107 -21 -190 -8 -82 -19
-170 -23 -195 -12 -73 -6 -176 13 -205 13 -20 24 -25 60 -25 50 0 59 8 76 70
14 50 13 48 65 175 128 312 336 517 643 635 29 11 64 20 77 20 13 0 26 4 29 9
6 10 93 22 152 21 62 -1 78 19 70 89 -3 31 -10 88 -14 128 -11 105 -29 121
-141 125 l-86 3 -3 65 c-2 63 -6 78 -40 149 -24 48 -106 116 -164 135 -51 16
-132 19 -178 7z m152 -100 c24 -10 61 -37 83 -60 38 -40 40 -45 43 -117 l4
-74 -203 2 -204 3 -3 44 c-4 56 12 96 57 145 67 71 144 91 223 57z m-322 -391
c0 -5 -4 -10 -10 -10 -5 0 -10 5 -10 10 0 6 5 10 10 10 6 0 10 -4 10 -10z
m520 0 c0 -5 -4 -10 -10 -10 -5 0 -10 5 -10 10 0 6 5 10 10 10 6 0 10 -4 10
-10z"/>
<path d="M1007 1183 c-4 -3 -7 -138 -7 -298 0 -248 2 -294 15 -305 11 -9 52
-11 153 -8 115 4 144 8 179 26 73 38 111 113 97 190 -7 36 -46 84 -89 108 -19
11 -18 12 12 47 71 81 48 193 -47 231 -30 12 -74 16 -174 16 -73 0 -136 -3
-139 -7z m256 -101 c31 -34 32 -75 2 -111 -26 -30 -31 -32 -84 -29 l-56 3 -3
78 -3 77 64 0 c49 0 68 -4 80 -18z m31 -273 c32 -38 33 -79 3 -114 -21 -24
-30 -27 -97 -29 l-75 -1 -3 88 -3 87 75 0 c71 0 75 -1 100 -31z"/>
<path d="M2557 1183 c-4 -3 -7 -138 -7 -298 0 -248 2 -294 15 -305 24 -20 280
-9 325 14 49 26 79 55 96 95 34 82 6 154 -82 207 -17 10 -17 13 11 42 73 77
55 191 -38 232 -35 16 -66 20 -178 20 -75 0 -139 -3 -142 -7z m262 -109 c28
-36 26 -72 -6 -106 -23 -24 -35 -28 -80 -28 l-53 0 0 80 0 80 59 0 c52 0 62
-3 80 -26z m23 -261 c37 -35 39 -89 3 -123 -19 -18 -39 -24 -95 -28 l-70 -5 0
92 0 91 67 0 c59 0 70 -3 95 -27z"/>
<path d="M1630 1024 c-50 -15 -70 -36 -70 -70 0 -34 13 -36 65 -14 26 11 69
20 96 20 63 0 89 -23 89 -80 l0 -40 -45 0 c-65 0 -140 -18 -177 -43 -72 -49
-73 -150 -2 -204 48 -36 140 -39 197 -6 37 22 37 22 49 3 16 -25 83 -28 92 -4
10 25 7 256 -4 315 -14 75 -27 95 -76 119 -52 24 -145 26 -214 4z m180 -296
c0 -60 -29 -88 -90 -88 -56 0 -70 12 -70 61 0 49 28 68 103 68 l57 1 0 -42z"/>
<path d="M2132 1020 c-61 -32 -82 -66 -82 -134 0 -34 6 -66 15 -80 15 -22 14
-26 -10 -61 -30 -45 -31 -60 -5 -103 l20 -33 -25 -33 c-25 -32 -33 -84 -19
-121 14 -35 84 -58 179 -59 142 -2 215 37 231 120 4 20 1 47 -6 64 -22 52 -57
69 -175 83 -111 13 -136 25 -122 60 5 12 21 15 79 15 59 -1 80 4 111 22 48 29
60 51 67 125 4 52 8 60 26 63 24 3 35 30 27 62 -5 17 -14 20 -63 20 -31 0 -90
3 -131 6 -63 5 -80 2 -117 -16z m138 -80 c43 -43 9 -130 -50 -130 -46 0 -70
26 -70 75 0 34 5 47 22 59 31 22 74 20 98 -4z m38 -372 c21 -21 14 -64 -13
-82 -33 -22 -122 -21 -147 1 -22 20 -23 51 -1 75 12 14 31 18 83 18 38 0 71
-5 78 -12z"/>
<path d="M3176 1020 c-54 -21 -66 -33 -66 -67 0 -33 13 -35 65 -13 68 29 139
27 171 -5 19 -19 24 -34 22 -58 -3 -30 -6 -32 -43 -34 -58 -4 -146 -23 -177
-39 -37 -19 -58 -63 -58 -118 0 -100 120 -155 226 -105 27 13 52 25 55 26 4 2
9 -5 12 -17 4 -16 13 -20 46 -20 l41 0 0 180 c0 215 -7 240 -72 270 -57 26
-156 26 -222 0z m184 -294 c0 -66 -95 -112 -142 -69 -24 21 -23 58 2 83 16 16
33 20 80 20 l60 0 0 -34z"/>
<path d="M3705 1027 c-54 -22 -75 -37 -90 -67 -19 -38 -19 -113 0 -151 15 -28
15 -31 -5 -56 -24 -31 -27 -95 -5 -113 20 -17 19 -23 -10 -66 -27 -40 -33 -98
-12 -125 28 -37 79 -52 177 -53 77 -1 104 3 142 21 78 36 110 117 72 182 -22
37 -56 50 -164 62 -112 13 -125 18 -125 50 0 23 3 24 76 25 104 2 149 28 178
100 7 17 11 49 9 70 -3 33 0 39 18 42 24 3 35 30 27 62 -4 17 -14 20 -58 20
-28 0 -85 2 -126 5 -47 3 -85 0 -104 -8z m113 -83 c17 -12 22 -25 22 -59 0
-49 -24 -75 -70 -75 -44 0 -70 26 -70 71 0 68 63 102 118 63z m47 -374 c21
-17 19 -53 -4 -81 -17 -21 -28 -24 -84 -24 -50 0 -70 4 -86 19 -27 25 -27 54
2 84 20 22 28 24 89 19 37 -2 75 -10 83 -17z"/>
<path d="M4158 1027 c-66 -30 -96 -89 -79 -155 13 -47 40 -72 111 -101 70 -30
90 -47 90 -82 0 -55 -84 -72 -162 -33 -40 21 -48 17 -48 -20 0 -52 35 -71 136
-70 61 0 89 5 115 20 47 27 73 83 65 138 -8 53 -40 85 -120 117 -69 28 -101
61 -85 91 22 41 83 46 161 13 12 -5 20 -2 24 9 12 31 -4 61 -39 74 -42 15
-133 14 -169 -1z"/>
</g>
</svg>
