<?xml version="1.0" standalone="no"?>
<!DOCTYPE svg PUBLIC "-//W3C//DTD SVG 20010904//EN"
 "http://www.w3.org/TR/2001/REC-SVG-20010904/DTD/svg10.dtd">
<svg version="1.0" xmlns="http://www.w3.org/2000/svg"
 width="841.000000pt" height="378.000000pt" viewBox="0 0 841.000000 378.000000"
 preserveAspectRatio="xMidYMid meet">

<g transform="translate(0.000000,378.000000) scale(0.100000,-0.100000)"
fill="#000000" stroke="none">
<path d="M1585 3449 c-157 -23 -280 -84 -381 -192 -90 -95 -136 -190 -155
-321 -5 -39 -15 -74 -22 -78 -6 -4 -51 -8 -99 -8 -48 0 -98 -4 -112 -10 -42
-16 -104 -79 -120 -123 -9 -23 -36 -211 -61 -417 -24 -206 -67 -562 -94 -790
-28 -228 -58 -481 -67 -561 l-17 -147 22 -45 c32 -66 73 -89 153 -85 l63 3 8
70 c32 300 85 461 221 665 248 372 699 649 1205 740 152 27 376 44 483 36 92
-6 118 3 118 42 0 52 -53 444 -66 483 -14 46 -57 95 -104 120 -14 7 -72 16
-128 20 -112 6 -122 11 -122 64 0 46 -27 142 -59 210 -72 155 -256 286 -451
321 -84 15 -128 16 -215 3z m267 -208 c73 -28 165 -96 201 -148 34 -49 63
-122 72 -184 6 -43 5 -47 -17 -52 -36 -10 -851 -8 -867 2 -22 14 -6 95 34 178
55 111 143 180 278 218 75 21 225 14 299 -14z m-677 -586 c31 -30 32 -71 3
-102 -45 -48 -128 -16 -128 49 0 69 77 102 125 53z m1109 4 c52 -41 18 -129
-50 -129 -67 0 -99 77 -52 127 27 29 67 30 102 2z"/>
<path d="M1680 1216 l0 -546 338 0 c395 0 405 2 488 85 63 63 88 129 88 231
-1 113 -61 222 -147 266 l-41 21 25 21 c145 120 118 352 -51 442 -32 17 -66
19 -367 22 l-333 3 0 -545z m581 471 c126 -67 146 -244 39 -340 -53 -49 -110
-59 -305 -55 l-160 3 -3 195 c-1 107 0 200 2 207 4 10 50 13 194 13 178 0 191
-1 233 -23z m14 -478 c180 -85 180 -383 0 -468 -41 -19 -62 -21 -245 -21
l-200 0 0 255 0 255 200 0 c183 0 204 -2 245 -21z"/>
<path d="M4640 1215 l0 -545 343 0 342 0 60 29 c105 49 156 130 163 257 7 132
-47 248 -139 295 l-40 20 39 43 c56 60 76 120 70 205 -8 112 -66 190 -167 226
-35 12 -102 15 -357 15 l-314 0 0 -545z m578 474 c124 -61 147 -252 41 -342
-56 -48 -102 -57 -298 -57 l-171 0 0 210 0 210 192 0 c176 0 195 -2 236 -21z
m38 -494 c72 -45 109 -122 109 -224 0 -102 -36 -170 -115 -218 l-54 -33 -203
0 -203 0 0 256 0 255 208 -3 209 -3 49 -30z"/>
<path d="M4406 1475 c-15 -29 -40 -64 -55 -79 l-29 -28 -38 25 c-22 14 -68 35
-104 47 -55 19 -81 21 -171 18 -92 -4 -114 -8 -172 -36 -162 -75 -245 -218
-235 -405 11 -220 188 -377 425 -377 183 0 327 83 395 227 66 139 50 315 -37
429 -14 18 -25 37 -25 41 0 5 19 18 43 30 52 25 141 103 130 113 -4 4 -29 17
-54 27 l-45 20 -28 -52z m-290 -74 c178 -81 232 -472 87 -640 -45 -53 -102
-80 -166 -81 -120 0 -214 91 -247 242 -18 81 -8 238 20 311 59 155 183 224
306 168z"/>
<path d="M7369 1486 c-11 -24 -35 -61 -53 -81 l-32 -38 -57 33 c-75 42 -145
60 -237 60 -139 -1 -239 -40 -321 -127 -151 -160 -150 -420 3 -573 164 -164
483 -160 641 9 73 78 100 146 105 261 4 108 -13 171 -73 260 l-33 49 53 30
c58 33 125 88 125 102 0 5 -22 20 -50 34 l-50 25 -21 -44z m-288 -89 c97 -51
149 -163 157 -334 4 -94 1 -122 -17 -182 -38 -126 -120 -201 -222 -201 -99 0
-170 47 -217 142 -98 201 -38 496 117 578 51 27 127 26 182 -3z"/>
<path d="M7802 1449 c-101 -17 -176 -76 -201 -158 -16 -53 -14 -89 8 -136 37
-81 91 -117 257 -171 181 -58 230 -96 221 -167 -7 -51 -30 -74 -90 -92 -93
-28 -232 -10 -340 43 -47 23 -59 26 -68 15 -18 -21 -5 -37 58 -71 148 -79 361
-82 475 -7 88 58 121 194 69 278 -38 62 -92 93 -245 142 -162 51 -200 72 -222
119 -21 43 -12 80 26 116 69 64 221 66 348 4 39 -19 57 -23 65 -15 30 30 -75
83 -196 100 -87 12 -91 12 -165 0z"/>
<path d="M2983 1426 c-58 -19 -105 -49 -148 -98 -34 -36 -36 -43 -22 -53 14
-10 25 -3 71 41 42 40 68 57 112 70 72 21 164 15 202 -12 33 -24 72 -98 72
-136 0 -40 -50 -62 -207 -87 -162 -25 -203 -41 -251 -97 -117 -132 -66 -331
99 -389 100 -35 245 -28 333 17 36 18 41 19 51 4 9 -12 29 -16 75 -16 l62 0
-4 288 c-3 286 -3 287 -29 343 -31 65 -77 104 -145 125 -58 17 -214 17 -271 0z
m289 -470 l-3 -215 -52 -25 c-172 -83 -316 -7 -317 167 0 96 43 169 118 200
28 11 191 66 252 85 3 1 4 -94 2 -212z"/>
<path d="M5943 1426 c-55 -18 -100 -46 -147 -94 -35 -37 -41 -62 -14 -62 5 0
35 22 65 50 60 54 125 80 202 80 55 0 122 -29 145 -61 22 -31 39 -95 31 -119
-8 -26 -70 -48 -188 -65 -195 -29 -257 -60 -303 -152 -52 -105 -25 -232 64
-300 58 -44 109 -57 222 -57 81 0 105 4 160 27 55 22 66 24 73 12 6 -11 26
-15 72 -15 l64 0 -3 278 c-2 228 -6 286 -20 330 -23 71 -78 126 -147 146 -64
19 -217 20 -276 2z m285 -468 l-3 -212 -33 -23 c-43 -28 -132 -47 -188 -38
-104 15 -169 133 -143 255 9 42 21 63 58 100 40 40 57 49 131 68 47 13 103 31
125 42 22 10 43 19 48 19 4 1 6 -94 5 -211z"/>
<path d="M3671 681 c-73 -73 -80 -173 -18 -239 50 -54 62 -56 357 -62 225 -5
282 -9 312 -22 48 -21 57 -55 35 -119 -20 -56 -21 -59 -4 -59 21 0 88 69 103
106 20 48 18 123 -6 161 -10 18 -39 42 -62 55 -41 22 -55 23 -323 28 -242 4
-284 7 -312 23 -46 25 -57 49 -39 91 8 18 19 37 25 41 9 5 9 10 0 21 -17 21
-25 18 -68 -25z"/>
<path d="M6640 694 c-101 -85 -91 -232 20 -290 31 -16 70 -19 310 -24 298 -6
323 -10 348 -62 12 -26 8 -47 -23 -120 -13 -33 29 -20 67 20 99 101 89 229
-22 285 -42 21 -61 22 -325 27 -293 5 -308 8 -339 52 -22 31 -20 52 9 87 25
29 25 30 6 40 -16 9 -26 6 -51 -15z"/>
</g>
</svg>
